<mxfile host="app.diagrams.net" modified="2020-07-16T10:03:13.686Z" agent="5.0 (Windows NT 10.0; Win64; x64) AppleWebKit/537.36 (KHTML, like Gecko) Chrome/81.0.4044.138 Safari/537.36" etag="XshWaRkZRFxDENqAi5lm" version="13.4.4" type="github">
  <diagram id="2xrCrNCHPhNK-JkAbHhq" name="Page-1">
    <mxGraphModel dx="1038" dy="531" grid="1" gridSize="10" guides="1" tooltips="1" connect="1" arrows="1" fold="1" page="1" pageScale="1" pageWidth="827" pageHeight="1169" math="0" shadow="0">
      <root>
        <mxCell id="0" />
        <mxCell id="1" parent="0" />
        <mxCell id="5Sj1dxporuseu_BaNz3a-1" value="开始" style="rounded=1;whiteSpace=wrap;html=1;fillColor=#d5e8d4;strokeColor=#82b366;" parent="1" vertex="1">
          <mxGeometry x="360" y="80" width="120" height="60" as="geometry" />
        </mxCell>
        <mxCell id="5Sj1dxporuseu_BaNz3a-2" value="" style="endArrow=classic;html=1;" parent="1" source="5Sj1dxporuseu_BaNz3a-1" edge="1">
          <mxGeometry width="50" height="50" relative="1" as="geometry">
            <mxPoint x="390" y="300" as="sourcePoint" />
            <mxPoint x="420" y="230" as="targetPoint" />
          </mxGeometry>
        </mxCell>
        <mxCell id="5Sj1dxporuseu_BaNz3a-4" value="基层单位提交审核上报市直单位" style="rounded=0;whiteSpace=wrap;html=1;fillColor=#d5e8d4;strokeColor=#82b366;" parent="1" vertex="1">
          <mxGeometry x="320" y="230" width="200" height="60" as="geometry" />
        </mxCell>
        <mxCell id="5Sj1dxporuseu_BaNz3a-5" value="市直(提交&lt;br&gt;)审核上报市总" style="rhombus;whiteSpace=wrap;html=1;fillColor=#d5e8d4;strokeColor=#82b366;" parent="1" vertex="1">
          <mxGeometry x="318.13" y="400" width="203.75" height="135" as="geometry" />
        </mxCell>
        <mxCell id="5Sj1dxporuseu_BaNz3a-6" value="" style="endArrow=classic;html=1;exitX=0.5;exitY=1;exitDx=0;exitDy=0;entryX=0.5;entryY=0;entryDx=0;entryDy=0;" parent="1" source="5Sj1dxporuseu_BaNz3a-4" target="5Sj1dxporuseu_BaNz3a-5" edge="1">
          <mxGeometry width="50" height="50" relative="1" as="geometry">
            <mxPoint x="390" y="400" as="sourcePoint" />
            <mxPoint x="440" y="350" as="targetPoint" />
            <Array as="points" />
          </mxGeometry>
        </mxCell>
        <mxCell id="5Sj1dxporuseu_BaNz3a-9" value="" style="endArrow=classic;html=1;exitX=0;exitY=0.5;exitDx=0;exitDy=0;entryX=1;entryY=0.5;entryDx=0;entryDy=0;" parent="1" source="5Sj1dxporuseu_BaNz3a-5" target="5Sj1dxporuseu_BaNz3a-11" edge="1">
          <mxGeometry width="50" height="50" relative="1" as="geometry">
            <mxPoint x="250" y="480" as="sourcePoint" />
            <mxPoint x="300" y="452.60655737704917" as="targetPoint" />
          </mxGeometry>
        </mxCell>
        <mxCell id="5Sj1dxporuseu_BaNz3a-11" value="材料不全，或劳模信息不全" style="rounded=0;whiteSpace=wrap;html=1;fillColor=#d5e8d4;strokeColor=#82b366;" parent="1" vertex="1">
          <mxGeometry x="80" y="437.5" width="120" height="60" as="geometry" />
        </mxCell>
        <mxCell id="5Sj1dxporuseu_BaNz3a-13" value="" style="endArrow=none;html=1;entryX=0.5;entryY=0;entryDx=0;entryDy=0;" parent="1" target="5Sj1dxporuseu_BaNz3a-11" edge="1">
          <mxGeometry width="50" height="50" relative="1" as="geometry">
            <mxPoint x="140" y="120" as="sourcePoint" />
            <mxPoint x="210" y="370" as="targetPoint" />
          </mxGeometry>
        </mxCell>
        <mxCell id="5Sj1dxporuseu_BaNz3a-15" value="" style="endArrow=classic;html=1;" parent="1" edge="1">
          <mxGeometry width="50" height="50" relative="1" as="geometry">
            <mxPoint x="140" y="120" as="sourcePoint" />
            <mxPoint x="350" y="120" as="targetPoint" />
          </mxGeometry>
        </mxCell>
        <mxCell id="5Sj1dxporuseu_BaNz3a-16" value="" style="endArrow=classic;html=1;exitX=0.5;exitY=1;exitDx=0;exitDy=0;" parent="1" source="5Sj1dxporuseu_BaNz3a-5" edge="1">
          <mxGeometry width="50" height="50" relative="1" as="geometry">
            <mxPoint x="400" y="570" as="sourcePoint" />
            <mxPoint x="418" y="640" as="targetPoint" />
          </mxGeometry>
        </mxCell>
        <mxCell id="5Sj1dxporuseu_BaNz3a-18" value="市总审核通过" style="rhombus;whiteSpace=wrap;html=1;fillColor=#d5e8d4;strokeColor=#82b366;" parent="1" vertex="1">
          <mxGeometry x="316.25" y="640" width="203.75" height="135" as="geometry" />
        </mxCell>
        <mxCell id="5Sj1dxporuseu_BaNz3a-20" value="" style="endArrow=classic;html=1;exitX=0;exitY=0.5;exitDx=0;exitDy=0;entryX=1;entryY=0.5;entryDx=0;entryDy=0;" parent="1" edge="1">
          <mxGeometry width="50" height="50" relative="1" as="geometry">
            <mxPoint x="316.25" y="707" as="sourcePoint" />
            <mxPoint x="200" y="707" as="targetPoint" />
          </mxGeometry>
        </mxCell>
        <mxCell id="5Sj1dxporuseu_BaNz3a-21" value="材料不全，或该信息不符合通过条件" style="rounded=0;whiteSpace=wrap;html=1;fillColor=#d5e8d4;strokeColor=#82b366;" parent="1" vertex="1">
          <mxGeometry x="80" y="677.5" width="120" height="60" as="geometry" />
        </mxCell>
        <mxCell id="5Sj1dxporuseu_BaNz3a-22" value="" style="endArrow=none;html=1;entryX=0.5;entryY=0;entryDx=0;entryDy=0;" parent="1" target="5Sj1dxporuseu_BaNz3a-21" edge="1">
          <mxGeometry width="50" height="50" relative="1" as="geometry">
            <mxPoint x="139.5" y="482.5" as="sourcePoint" />
            <mxPoint x="140" y="670" as="targetPoint" />
          </mxGeometry>
        </mxCell>
        <mxCell id="5Sj1dxporuseu_BaNz3a-23" value="" style="endArrow=classic;html=1;exitX=0.5;exitY=1;exitDx=0;exitDy=0;" parent="1" edge="1">
          <mxGeometry width="50" height="50" relative="1" as="geometry">
            <mxPoint x="417.755" y="775" as="sourcePoint" />
            <mxPoint x="417.63" y="895" as="targetPoint" />
          </mxGeometry>
        </mxCell>
        <mxCell id="5Sj1dxporuseu_BaNz3a-24" value="结束" style="rounded=1;whiteSpace=wrap;html=1;fillColor=#d5e8d4;strokeColor=#82b366;" parent="1" vertex="1">
          <mxGeometry x="358.13" y="886" width="120" height="60" as="geometry" />
        </mxCell>
        <mxCell id="5Sj1dxporuseu_BaNz3a-29" value="" style="endArrow=classic;html=1;exitX=0;exitY=0.5;exitDx=0;exitDy=0;" parent="1" edge="1">
          <mxGeometry width="50" height="50" relative="1" as="geometry">
            <mxPoint x="416.25" y="585" as="sourcePoint" />
            <mxPoint x="140" y="585" as="targetPoint" />
          </mxGeometry>
        </mxCell>
        <mxCell id="5Sj1dxporuseu_BaNz3a-32" value="基层单位或市直单位取消提交" style="text;html=1;strokeColor=none;fillColor=none;align=center;verticalAlign=middle;whiteSpace=wrap;rounded=0;" parent="1" vertex="1">
          <mxGeometry x="210" y="560" width="170" height="20" as="geometry" />
        </mxCell>
        <mxCell id="5Sj1dxporuseu_BaNz3a-33" value="" style="endArrow=classic;html=1;exitX=0;exitY=0.5;exitDx=0;exitDy=0;" parent="1" edge="1">
          <mxGeometry width="50" height="50" relative="1" as="geometry">
            <mxPoint x="416.25" y="352" as="sourcePoint" />
            <mxPoint x="140" y="352" as="targetPoint" />
          </mxGeometry>
        </mxCell>
        <mxCell id="5Sj1dxporuseu_BaNz3a-34" value="基层单位取消提交" style="text;html=1;strokeColor=none;fillColor=none;align=center;verticalAlign=middle;whiteSpace=wrap;rounded=0;" parent="1" vertex="1">
          <mxGeometry x="210" y="327" width="170" height="20" as="geometry" />
        </mxCell>
        <mxCell id="5Sj1dxporuseu_BaNz3a-35" value="&lt;h1&gt;操作&lt;/h1&gt;&lt;p&gt;市直审批后、市总审批前，不可以再次编辑劳模信息或补全材料&lt;/p&gt;&lt;p&gt;取消上级提交:可以取消上级提交&lt;/p&gt;&lt;p&gt;状态为新增档案状态&lt;/p&gt;&lt;p&gt;如果市直单位提交则状态为市直审批&lt;/p&gt;" style="text;html=1;strokeColor=none;fillColor=none;spacing=5;spacingTop=-20;whiteSpace=wrap;overflow=hidden;rounded=0;" parent="1" vertex="1">
          <mxGeometry x="478.13" y="507.5" width="190" height="170" as="geometry" />
        </mxCell>
        <mxCell id="5Sj1dxporuseu_BaNz3a-36" value="&lt;h1&gt;操作&lt;/h1&gt;&lt;p&gt;提交审核状态:可以再次编辑劳模信息或补全材料&lt;/p&gt;&lt;p&gt;取消上级提交:可以取消上级提交，状态为新增档案状态&lt;/p&gt;" style="text;html=1;strokeColor=none;fillColor=none;spacing=5;spacingTop=-20;whiteSpace=wrap;overflow=hidden;rounded=0;" parent="1" vertex="1">
          <mxGeometry x="478.13" y="303" width="190" height="120" as="geometry" />
        </mxCell>
        <mxCell id="5Sj1dxporuseu_BaNz3a-37" value="&lt;h1&gt;操作&lt;/h1&gt;&lt;p&gt;市总审批通过:可以修改劳模信息或补全材料，状态为新增档案，再次进行流程审核&lt;/p&gt;&lt;p&gt;如果市总单位提交审核数据状态为市总审批&lt;/p&gt;" style="text;html=1;strokeColor=none;fillColor=none;spacing=5;spacingTop=-20;whiteSpace=wrap;overflow=hidden;rounded=0;" parent="1" vertex="1">
          <mxGeometry x="480" y="750" width="190" height="140" as="geometry" />
        </mxCell>
        <mxCell id="HPeuOD4sk2iE2vpmoL2G-1" value="新增档案" style="text;html=1;strokeColor=#b85450;fillColor=#f8cecc;align=center;verticalAlign=middle;whiteSpace=wrap;rounded=0;" vertex="1" parent="1">
          <mxGeometry x="560" y="100" width="80" height="20" as="geometry" />
        </mxCell>
        <mxCell id="HPeuOD4sk2iE2vpmoL2G-2" value="提交审核" style="text;html=1;strokeColor=#b85450;fillColor=#f8cecc;align=center;verticalAlign=middle;whiteSpace=wrap;rounded=0;" vertex="1" parent="1">
          <mxGeometry x="560" y="260" width="80" height="20" as="geometry" />
        </mxCell>
        <mxCell id="HPeuOD4sk2iE2vpmoL2G-3" value="市直审批" style="text;html=1;strokeColor=#b85450;fillColor=#f8cecc;align=center;verticalAlign=middle;whiteSpace=wrap;rounded=0;" vertex="1" parent="1">
          <mxGeometry x="560" y="457.5" width="80" height="20" as="geometry" />
        </mxCell>
        <mxCell id="HPeuOD4sk2iE2vpmoL2G-4" value="市总审批" style="text;html=1;strokeColor=#b85450;fillColor=#f8cecc;align=center;verticalAlign=middle;whiteSpace=wrap;rounded=0;" vertex="1" parent="1">
          <mxGeometry x="560" y="697.5" width="80" height="20" as="geometry" />
        </mxCell>
        <mxCell id="HPeuOD4sk2iE2vpmoL2G-5" value="提交人修改数据，或补全劳模材料" style="rounded=0;whiteSpace=wrap;html=1;fillColor=#d5e8d4;strokeColor=#82b366;" vertex="1" parent="1">
          <mxGeometry x="80" y="886" width="120" height="60" as="geometry" />
        </mxCell>
        <mxCell id="HPeuOD4sk2iE2vpmoL2G-6" value="" style="endArrow=classic;html=1;exitX=0;exitY=0.5;exitDx=0;exitDy=0;" edge="1" parent="1" target="HPeuOD4sk2iE2vpmoL2G-5">
          <mxGeometry width="50" height="50" relative="1" as="geometry">
            <mxPoint x="356.25" y="915.5" as="sourcePoint" />
            <mxPoint x="80" y="915.5" as="targetPoint" />
          </mxGeometry>
        </mxCell>
        <mxCell id="HPeuOD4sk2iE2vpmoL2G-7" value="" style="endArrow=none;html=1;entryX=0.5;entryY=1;entryDx=0;entryDy=0;exitX=0.5;exitY=0;exitDx=0;exitDy=0;" edge="1" parent="1" source="HPeuOD4sk2iE2vpmoL2G-5">
          <mxGeometry width="50" height="50" relative="1" as="geometry">
            <mxPoint x="140" y="880" as="sourcePoint" />
            <mxPoint x="140" y="738.5" as="targetPoint" />
          </mxGeometry>
        </mxCell>
      </root>
    </mxGraphModel>
  </diagram>
</mxfile>
